<?xml version="1.0" standalone="no"?>
<!DOCTYPE svg PUBLIC "-//W3C//DTD SVG 20010904//EN"
 "http://www.w3.org/TR/2001/REC-SVG-20010904/DTD/svg10.dtd">
<svg version="1.0" xmlns="http://www.w3.org/2000/svg"
 width="210.000000pt" height="210.000000pt" viewBox="0 0 210.000000 210.000000"
 preserveAspectRatio="xMidYMid meet">
<metadata>
Created by potrace 1.11, written by Peter Selinger 2001-2013
</metadata>
<g transform="translate(0.000000,210.000000) scale(0.100000,-0.100000)"
fill="#000000" stroke="none">
<path d="M1184 1687 c-2 -7 -3 -316 -2 -687 l3 -675 39 -3 c30 -3 44 1 55 16
9 10 110 88 224 172 178 131 208 156 203 174 -3 12 -6 26 -6 33 0 6 -80 60
-177 119 -98 59 -196 119 -218 132 l-39 25 201 97 c149 72 203 103 208 119 6
18 -28 58 -220 256 -217 224 -257 257 -271 222z m428 -469 c-4 -4 -91 -47
-194 -97 l-188 -90 0 297 1 297 194 -200 c106 -110 190 -203 187 -207z m-159
-398 c114 -69 207 -127 207 -130 0 -3 -47 -39 -103 -80 -56 -41 -153 -111
-214 -157 l-113 -83 0 291 c0 160 4 289 8 287 5 -1 102 -59 215 -128z"/>
<path d="M541 1668 c-4 -13 -86 -295 -181 -627 -118 -414 -169 -606 -162 -613
25 -25 41 8 97 204 32 111 64 224 72 251 l14 47 207 0 208 0 95 -272 c80 -231
98 -273 114 -273 11 0 21 7 22 15 1 8 -98 301 -220 650 -228 650 -241 683
-266 618z m135 -396 l101 -287 -185 -3 c-102 -1 -187 0 -190 2 -6 7 161 586
168 580 3 -3 50 -134 106 -292z"/>
</g>
</svg>
